<svg width="860" height="864" viewBox="0 0 860 864" fill="none" xmlns="http://www.w3.org/2000/svg">
<rect width="860" height="864" rx="120" fill="#597004"/>
<path d="M173.846 149.56C177.686 149.56 182.806 149.56 189.206 149.56C195.82 149.56 202.646 149.56 209.686 149.56C216.94 149.56 223.766 149.56 230.166 149.56C236.566 149.56 241.58 149.667 245.206 149.88C274.006 150.52 297.686 155.747 316.246 165.56C334.806 175.373 348.46 188.92 357.206 206.2C366.166 223.267 370.646 243.64 370.646 267.32C370.646 291.64 365.953 312.867 356.566 331C347.393 348.92 333.313 362.787 314.326 372.6C295.553 382.2 271.98 387 243.606 387H174.166C169.26 387 166.806 384.44 166.806 379.32V156.28C166.806 153.72 167.34 152.013 168.406 151.16C169.473 150.093 171.286 149.56 173.846 149.56ZM226.006 189.24C223.873 189.24 222.806 190.733 222.806 193.72V343.16C222.806 346.147 224.193 347.64 226.966 347.64H233.046C250.54 347.64 265.153 345.08 276.886 339.96C288.62 334.627 297.366 326.093 303.126 314.36C309.1 302.627 312.086 287.053 312.086 267.64C312.086 248.867 309.313 233.827 303.766 222.52C298.433 211 290.113 202.573 278.806 197.24C267.713 191.907 253.526 189.24 236.246 189.24H226.006ZM698.039 149.56C701.239 149.56 703.479 150.52 704.759 152.44C706.039 154.36 706.252 156.707 705.399 159.48L640.119 380.28C638.625 384.76 635.425 387 630.519 387H595.959C590.625 387 587.319 384.76 586.039 380.28L545.719 240.44C545.292 238.52 544.652 237.56 543.799 237.56C543.159 237.347 542.519 238.52 541.879 241.08L501.239 380.28C499.959 384.76 496.759 387 491.639 387H456.119C450.999 387 447.692 384.76 446.199 380.28L380.919 159.48C380.279 156.707 380.599 154.36 381.879 152.44C383.159 150.52 385.399 149.56 388.599 149.56H428.599C431.372 149.56 433.292 150.093 434.359 151.16C435.639 152.013 436.492 153.293 436.919 155L478.199 300.6C478.839 302.947 479.479 304.12 480.119 304.12C480.759 304.12 481.399 303.267 482.039 301.56L523.319 155C523.745 153.293 524.492 152.013 525.559 151.16C526.839 150.093 528.865 149.56 531.639 149.56H565.879C568.652 149.56 570.572 150.093 571.639 151.16C572.919 152.013 573.879 153.293 574.519 155L616.439 302.84C616.865 304.333 617.505 305.187 618.359 305.4C619.212 305.4 619.745 304.653 619.959 303.16L660.599 155C661.025 153.293 661.879 152.013 663.159 151.16C664.439 150.093 666.465 149.56 669.239 149.56H698.039ZM439.106 699.32C440.173 701.24 440.493 703.053 440.066 704.76C439.64 706.253 438.146 707 435.586 707H387.586C382.893 707 379.8 705.293 378.306 701.88L326.786 601.4C325.293 599.053 323.266 599.48 320.706 602.68L292.226 636.6C290.946 638.307 290.306 640.547 290.306 643.32V699.64C290.306 704.547 287.426 707 281.666 707H241.346C238.573 707 236.653 706.467 235.586 705.4C234.733 704.333 234.306 702.733 234.306 700.6V475.64C234.306 471.587 236.013 469.56 239.426 469.56H285.506C288.706 469.56 290.306 471.373 290.306 475V570.68C290.306 572.6 290.626 573.667 291.266 573.88C292.12 573.88 293.08 573.24 294.146 571.96L371.586 474.68C372.866 472.973 374.253 471.693 375.746 470.84C377.24 469.987 379.373 469.56 382.146 469.56H420.546C423.32 469.56 425.24 470.307 426.306 471.8C427.586 473.293 427.373 475 425.666 476.92L364.226 548.92C362.52 551.053 362.306 553.613 363.586 556.6L439.106 699.32ZM441.841 475.32C441.841 473.613 442.375 472.227 443.441 471.16C444.508 470.093 446.108 469.56 448.241 469.56H631.921C634.268 469.56 635.868 470.093 636.721 471.16C637.788 472.227 638.321 473.613 638.321 475.32V505.08C638.321 508.28 636.401 509.88 632.561 509.88H572.721C570.375 509.88 569.201 510.947 569.201 513.08V700.92C569.201 704.973 567.388 707 563.761 707H518.001C514.801 707 513.201 705.187 513.201 701.56V514.04C513.201 511.267 512.028 509.88 509.681 509.88H447.921C443.868 509.88 441.841 508.28 441.841 505.08V475.32Z" fill="white" fill-opacity="0.95"/>
</svg>
