<?xml version="1.0" encoding="UTF-8" standalone="no"?><!DOCTYPE svg PUBLIC "-//W3C//DTD SVG 1.1//EN" "http://www.w3.org/Graphics/SVG/1.1/DTD/svg11.dtd"><svg width="100%" height="100%" viewBox="0 0 1875 313" version="1.1" xmlns="http://www.w3.org/2000/svg" xmlns:xlink="http://www.w3.org/1999/xlink" xml:space="preserve" xmlns:serif="http://www.serif.com/" style="fill-rule:evenodd;clip-rule:evenodd;stroke-linejoin:round;stroke-miterlimit:2;"><g><path d="M194.58,217.214c-13.239,-13.361 -22.713,-43.968 -46.033,-44.94c-0.364,-0.122 -0.729,-0.122 -1.215,-0.122c-3.036,0 -3.279,-0.243 -6.68,0.122l0,0.121c-22.834,1.458 -32.308,31.701 -45.426,44.94c-16.761,16.762 -39.717,3.887 -42.024,43.968c-1.701,30.487 13.239,45.062 36.802,46.762c23.563,1.701 41.417,-12.753 52.349,-13.36c2.429,-0.365 2.429,-0.243 4.979,-0c10.932,0.607 28.786,15.061 52.349,13.36c23.563,-1.7 38.624,-16.154 36.802,-46.762c-2.186,-40.203 -25.142,-27.328 -41.903,-44.089Z" style="fill:#fff;fill-rule:nonzero;"/><path d="M111.988,50.936c23.077,3.037 19.555,32.916 21.498,47.005c1.822,13.968 4.13,31.336 -5.101,37.288c-9.838,6.194 -23.928,-1.579 -32.43,-9.717c-2.55,-2.551 -24.292,-15.79 -17.126,-44.454c4.252,-17.004 20.284,-31.822 33.159,-30.122Z" style="fill:#fff;fill-rule:nonzero;"/><path d="M105.186,4.296c0,-0 -15.425,21.377 -10.567,32.915c3.401,8.138 16.397,8.138 17.369,-1.093c0.85,-9.231 -3.523,-25.506 -6.802,-31.822Z" style="fill:#fff;fill-rule:nonzero;"/><path d="M7.047,94.176c0,-0 -9.109,24.777 -1.336,34.494c5.466,6.923 17.976,3.401 16.397,-5.709c-1.457,-9.23 -10.202,-23.684 -15.061,-28.785Z" style="fill:#fff;fill-rule:nonzero;"/><path d="M25.266,136.2c12.389,-4.008 30.365,5.102 38.745,19.434c6.681,11.417 13.361,30.122 -2.064,43.361c-12.025,10.445 -30.001,12.024 -40.811,4.615c-20.769,-14.21 -18.34,-60.243 4.13,-67.41Z" style="fill:#fff;fill-rule:nonzero;"/><path d="M179.398,50.936c-23.078,3.037 -19.555,32.916 -21.499,47.005c-1.822,13.968 -4.129,31.336 5.102,37.288c9.838,6.194 23.927,-1.579 32.429,-9.717c2.672,-2.551 24.292,-15.79 17.126,-44.454c-4.251,-17.004 -20.284,-31.822 -33.158,-30.122Z" style="fill:#fff;fill-rule:nonzero;"/><path d="M186.321,4.296c-0,-0 15.425,21.377 10.567,32.915c-3.401,8.138 -16.397,8.138 -17.369,-1.093c-0.972,-9.231 3.522,-25.506 6.802,-31.822Z" style="fill:#fff;fill-rule:nonzero;"/><path d="M278.265,94.176c0,-0 9.11,24.777 1.336,34.494c-5.465,6.923 -17.976,3.401 -16.397,-5.709c1.579,-9.23 10.324,-23.684 15.061,-28.785Z" style="fill:#fff;fill-rule:nonzero;"/><path d="M260.168,136.2c-12.389,-4.008 -30.365,5.102 -38.746,19.434c-6.68,11.417 -13.36,30.122 2.065,43.361c12.025,10.445 30.001,12.024 40.81,4.615c20.77,-14.21 18.341,-60.243 -4.129,-67.41Z" style="fill:#fff;fill-rule:nonzero;"/></g><g transform="matrix(241.667,0,0,241.667,371.2,239.282)"><path d="M0.05,-0.066c0.015,-0.001 0.028,-0.003 0.038,-0.006c0.011,-0.003 0.019,-0.011 0.025,-0.023c0.005,-0.012 0.008,-0.031 0.008,-0.058l0,-0.383c0,-0.018 0.001,-0.035 0.002,-0.052c0.001,-0.017 0.001,-0.029 0.002,-0.038c-0.011,0.001 -0.024,0.001 -0.04,0.002c-0.016,-0 -0.028,0 -0.035,0.001l0,-0.077c0.047,-0.001 0.095,-0.001 0.142,-0.001c0.047,0 0.095,-0 0.142,-0.001c0.059,-0.001 0.11,0.007 0.153,0.023c0.044,0.016 0.078,0.041 0.102,0.074c0.023,0.033 0.034,0.077 0.033,0.13c-0.001,0.027 -0.007,0.053 -0.019,0.079c-0.012,0.025 -0.03,0.049 -0.053,0.07c-0.023,0.021 -0.053,0.038 -0.088,0.051c-0.035,0.013 -0.077,0.021 -0.124,0.022c-0.015,0.001 -0.027,0.001 -0.038,0.001c-0.011,0 -0.023,-0 -0.034,-0.001l0,0.088c0,0.019 -0,0.036 -0.001,0.053c-0.001,0.017 -0.002,0.029 -0.003,0.038c0.007,-0.001 0.017,-0.001 0.028,-0.001c0.011,-0.001 0.022,-0.001 0.033,-0.001c0.011,-0.001 0.019,-0.001 0.024,-0.001l-0,0.077l-0.297,0l-0,-0.066Zm0.216,-0.262c0.007,0.001 0.015,0.001 0.022,0.002c0.007,0.001 0.015,0.001 0.023,0.001c0.037,0 0.066,-0.006 0.089,-0.018c0.023,-0.013 0.04,-0.031 0.051,-0.054c0.011,-0.024 0.016,-0.053 0.016,-0.087c-0,-0.033 -0.005,-0.06 -0.014,-0.08c-0.009,-0.02 -0.02,-0.035 -0.034,-0.044c-0.014,-0.01 -0.029,-0.016 -0.044,-0.019c-0.015,-0.003 -0.029,-0.005 -0.042,-0.005c-0.014,0 -0.026,0.002 -0.036,0.005c-0.01,0.003 -0.018,0.011 -0.023,0.022c-0.005,0.011 -0.008,0.029 -0.008,0.052l-0,0.225Z" style="fill:#fff;fill-rule:nonzero;"/></g><g transform="matrix(241.667,0,0,241.667,523.209,239.282)"><path d="M0.319,-0c-0.001,-0.009 -0.002,-0.017 -0.003,-0.024c0,-0.006 -0,-0.013 -0.001,-0.022c-0.023,0.023 -0.047,0.039 -0.072,0.048c-0.025,0.009 -0.051,0.014 -0.077,0.014c-0.043,0 -0.076,-0.013 -0.1,-0.038c-0.024,-0.025 -0.036,-0.057 -0.036,-0.095c0,-0.032 0.008,-0.059 0.025,-0.082c0.016,-0.023 0.038,-0.041 0.065,-0.055c0.027,-0.015 0.057,-0.026 0.09,-0.034c0.033,-0.007 0.066,-0.012 0.099,-0.013l0,-0.052c0,-0.017 -0.002,-0.033 -0.006,-0.047c-0.005,-0.014 -0.012,-0.025 -0.022,-0.033c-0.011,-0.008 -0.025,-0.012 -0.044,-0.011c-0.013,0.001 -0.025,0.003 -0.037,0.008c-0.012,0.005 -0.022,0.011 -0.031,0.02c0.005,0.006 0.009,0.013 0.01,0.02c0.001,0.007 0.002,0.013 0.002,0.018c0,0.013 -0.005,0.027 -0.016,0.041c-0.011,0.015 -0.028,0.022 -0.051,0.021c-0.02,-0.001 -0.035,-0.008 -0.046,-0.021c-0.011,-0.013 -0.016,-0.029 -0.016,-0.047c0,-0.027 0.01,-0.05 0.029,-0.07c0.019,-0.019 0.044,-0.034 0.076,-0.045c0.032,-0.012 0.067,-0.017 0.106,-0.017c0.059,0 0.104,0.015 0.137,0.045c0.032,0.031 0.048,0.079 0.048,0.146l0,0.058c0,0.016 -0,0.032 -0,0.048c-0.001,0.016 -0.001,0.035 -0.001,0.058c0,0.009 -0,0.023 -0.001,0.04c-0.001,0.017 -0.002,0.033 -0.003,0.048c0.011,-0.001 0.023,-0.002 0.036,-0.002c0.013,-0.001 0.022,-0.001 0.029,-0.001l0,0.076l-0.189,0Zm-0.011,-0.23c-0.019,0.002 -0.036,0.005 -0.053,0.01c-0.017,0.005 -0.031,0.011 -0.043,0.019c-0.013,0.008 -0.022,0.018 -0.029,0.029c-0.007,0.011 -0.011,0.024 -0.011,0.038c0.001,0.019 0.007,0.032 0.018,0.04c0.011,0.008 0.024,0.012 0.039,0.012c0.015,0 0.03,-0.003 0.043,-0.01c0.013,-0.007 0.025,-0.015 0.036,-0.026l0,-0.112Z" style="fill:#fff;fill-rule:nonzero;"/></g><g transform="matrix(241.667,0,0,241.667,649.842,239.282)"><path d="M0.031,0.255l0,-0.065c0.019,0 0.032,-0.004 0.041,-0.011c0.008,-0.007 0.013,-0.018 0.016,-0.032c0.002,-0.013 0.003,-0.029 0.003,-0.046l-0,-0.423c0,-0.012 0,-0.025 0.001,-0.04c0.001,-0.016 0.002,-0.03 0.003,-0.045c-0.011,0.001 -0.023,0.001 -0.038,0.001c-0.015,0.001 -0.026,0.001 -0.033,0.002l-0,-0.076c0.031,0 0.057,-0.002 0.078,-0.005c0.022,-0.003 0.038,-0.007 0.05,-0.012c0.013,-0.005 0.021,-0.009 0.026,-0.013l0.049,0c0.001,0.007 0.002,0.015 0.003,0.025c0.001,0.009 0.001,0.017 0.002,0.023c0.023,-0.02 0.046,-0.034 0.069,-0.042c0.023,-0.008 0.045,-0.012 0.066,-0.012c0.04,0 0.075,0.01 0.105,0.031c0.031,0.021 0.054,0.05 0.071,0.088c0.018,0.038 0.026,0.083 0.026,0.134c0,0.053 -0.01,0.101 -0.031,0.144c-0.021,0.042 -0.05,0.075 -0.087,0.099c-0.036,0.024 -0.08,0.036 -0.13,0.036c-0.018,-0 -0.034,-0.002 -0.048,-0.006c-0.015,-0.003 -0.028,-0.007 -0.041,-0.012l0,0.096c0,0.009 -0,0.022 -0.001,0.039c0,0.017 -0.001,0.034 -0.002,0.049c0.011,-0.001 0.022,-0.002 0.035,-0.003c0.013,0 0.022,-0 0.029,0l-0,0.076l-0.262,0Zm0.274,-0.314c0.031,-0.001 0.054,-0.01 0.071,-0.028c0.017,-0.017 0.029,-0.04 0.036,-0.069c0.007,-0.029 0.01,-0.059 0.01,-0.092c-0,-0.031 -0.004,-0.06 -0.011,-0.087c-0.007,-0.027 -0.019,-0.049 -0.035,-0.067c-0.016,-0.017 -0.037,-0.025 -0.063,-0.024c-0.017,0.001 -0.032,0.005 -0.046,0.013c-0.014,0.007 -0.026,0.018 -0.035,0.031l0,0.305c0.007,0.005 0.018,0.009 0.031,0.013c0.013,0.004 0.027,0.006 0.042,0.005Z" style="fill:#fff;fill-rule:nonzero;"/></g><g transform="matrix(241.667,0,0,241.667,795.084,239.282)"><path d="M0.278,0.016c-0.049,0 -0.092,-0.011 -0.129,-0.033c-0.037,-0.021 -0.066,-0.052 -0.087,-0.092c-0.021,-0.039 -0.031,-0.086 -0.031,-0.14c-0,-0.047 0.01,-0.09 0.031,-0.131c0.021,-0.041 0.05,-0.074 0.087,-0.099c0.038,-0.024 0.082,-0.037 0.132,-0.037c0.028,0 0.055,0.004 0.082,0.011c0.027,0.008 0.051,0.021 0.072,0.04c0.022,0.019 0.039,0.044 0.052,0.076c0.014,0.032 0.02,0.072 0.019,0.12l-0.328,0.006c0,0.036 0.005,0.068 0.014,0.097c0.009,0.029 0.023,0.051 0.044,0.068c0.021,0.017 0.048,0.025 0.083,0.025c0.013,0 0.028,-0.002 0.045,-0.007c0.018,-0.005 0.035,-0.012 0.052,-0.023c0.018,-0.011 0.035,-0.026 0.05,-0.045l0.045,0.042c-0.024,0.034 -0.05,0.06 -0.077,0.078c-0.027,0.017 -0.054,0.029 -0.082,0.035c-0.027,0.006 -0.051,0.009 -0.074,0.009Zm-0.094,-0.349l0.184,0c-0.001,-0.028 -0.005,-0.05 -0.012,-0.067c-0.007,-0.016 -0.016,-0.028 -0.028,-0.035c-0.012,-0.007 -0.026,-0.011 -0.042,-0.011c-0.029,0 -0.052,0.011 -0.069,0.032c-0.017,0.021 -0.028,0.048 -0.033,0.081Z" style="fill:#fff;fill-rule:nonzero;"/></g><g transform="matrix(241.667,0,0,241.667,925.1,239.282)"><path d="M0.041,-0.065c0.019,0 0.032,-0.004 0.04,-0.011c0.008,-0.007 0.013,-0.018 0.016,-0.032c0.002,-0.013 0.003,-0.029 0.003,-0.046l0,-0.168c0,-0.012 0,-0.025 0.001,-0.04c0.001,-0.016 0.002,-0.03 0.003,-0.045c-0.011,0.001 -0.023,0.001 -0.038,0.001c-0.014,0.001 -0.025,0.001 -0.032,0.002l0,-0.076l0.04,0c0.026,0 0.05,-0.003 0.071,-0.01c0.022,-0.007 0.036,-0.013 0.043,-0.02l0.049,0c0.001,0.007 0.002,0.019 0.003,0.037c0.001,0.019 0.001,0.035 0.001,0.049c0.018,-0.022 0.035,-0.04 0.051,-0.053c0.016,-0.013 0.032,-0.023 0.047,-0.03c0.016,-0.006 0.032,-0.009 0.048,-0.009c0.023,0 0.044,0.007 0.061,0.02c0.017,0.012 0.026,0.034 0.026,0.063c0,0.01 -0.002,0.02 -0.007,0.031c-0.005,0.012 -0.012,0.021 -0.022,0.028c-0.01,0.007 -0.024,0.011 -0.041,0.011c-0.013,0 -0.027,-0.004 -0.041,-0.012c-0.014,-0.008 -0.022,-0.023 -0.024,-0.046c-0.013,0 -0.027,0.006 -0.04,0.016c-0.013,0.011 -0.025,0.024 -0.036,0.039c-0.01,0.015 -0.017,0.029 -0.021,0.042l-0,0.163c-0,0.009 -0,0.023 -0.001,0.04c-0.001,0.017 -0.002,0.033 -0.003,0.048c0.011,-0.001 0.022,-0.002 0.036,-0.003c0.012,0 0.022,0 0.029,0l-0,0.076l-0.262,-0l-0,-0.065Z" style="fill:#fff;fill-rule:nonzero;"/></g><g transform="matrix(241.667,0,0,241.667,1039.41,239.282)"><path d="M0.454,-0.476c-0.006,-0.037 -0.017,-0.069 -0.032,-0.093c-0.015,-0.025 -0.035,-0.044 -0.059,-0.057c-0.023,-0.013 -0.051,-0.019 -0.082,-0.018c-0.029,0 -0.054,0.008 -0.076,0.024c-0.021,0.016 -0.032,0.037 -0.032,0.062c0,0.021 0.006,0.039 0.017,0.054c0.012,0.015 0.03,0.03 0.054,0.043c0.024,0.013 0.054,0.028 0.091,0.043c0.025,0.01 0.051,0.022 0.078,0.035c0.027,0.013 0.051,0.029 0.074,0.047c0.023,0.019 0.041,0.04 0.055,0.065c0.014,0.024 0.021,0.052 0.021,0.085c0,0.039 -0.011,0.074 -0.032,0.105c-0.021,0.031 -0.051,0.055 -0.09,0.072c-0.038,0.016 -0.083,0.025 -0.134,0.025c-0.027,-0 -0.056,-0.004 -0.087,-0.013c-0.031,-0.008 -0.06,-0.02 -0.087,-0.036l0.003,0.042l-0.077,0l-0,-0.234l0.066,0c0.009,0.056 0.031,0.098 0.065,0.127c0.033,0.028 0.073,0.042 0.12,0.042c0.024,0 0.045,-0.004 0.063,-0.013c0.018,-0.009 0.032,-0.02 0.042,-0.035c0.01,-0.014 0.015,-0.029 0.015,-0.046c0,-0.023 -0.008,-0.043 -0.024,-0.058c-0.017,-0.015 -0.037,-0.028 -0.061,-0.039c-0.025,-0.011 -0.05,-0.021 -0.075,-0.031c-0.032,-0.013 -0.062,-0.027 -0.089,-0.042c-0.028,-0.015 -0.052,-0.033 -0.073,-0.052c-0.021,-0.019 -0.037,-0.041 -0.048,-0.067c-0.011,-0.025 -0.017,-0.053 -0.017,-0.086c0,-0.021 0.004,-0.042 0.012,-0.065c0.008,-0.022 0.021,-0.042 0.039,-0.061c0.018,-0.019 0.042,-0.035 0.072,-0.047c0.03,-0.012 0.067,-0.018 0.111,-0.018c0.027,0 0.056,0.004 0.088,0.012c0.031,0.008 0.058,0.02 0.081,0.036l-0.004,-0.041l0.078,0l0,0.233l-0.066,0Z" style="fill:#fff;fill-rule:nonzero;"/></g><g transform="matrix(241.667,0,0,241.667,1182.23,239.282)"><path d="M0.239,0.016c-0.02,0 -0.039,-0.002 -0.058,-0.007c-0.019,-0.005 -0.035,-0.014 -0.05,-0.027c-0.015,-0.013 -0.026,-0.032 -0.035,-0.057c-0.009,-0.025 -0.013,-0.059 -0.013,-0.101l0.002,-0.241l-0.068,0l0,-0.083c0.021,-0.001 0.041,-0.008 0.06,-0.021c0.019,-0.013 0.036,-0.031 0.05,-0.052c0.013,-0.021 0.022,-0.044 0.027,-0.067l0.074,0l-0.001,0.14l0.127,0l0,0.077l-0.127,0.003l-0.001,0.246c0,0.015 0.002,0.031 0.005,0.046c0.003,0.015 0.008,0.027 0.017,0.037c0.009,0.009 0.021,0.014 0.038,0.014c0.009,0 0.022,-0.003 0.039,-0.01c0.016,-0.007 0.033,-0.023 0.052,-0.05l0.048,0.045c-0.018,0.027 -0.037,0.047 -0.056,0.062c-0.019,0.015 -0.038,0.025 -0.055,0.032c-0.018,0.007 -0.034,0.011 -0.047,0.012c-0.013,0.001 -0.023,0.002 -0.028,0.002Z" style="fill:#fff;fill-rule:nonzero;"/></g><g transform="matrix(241.667,0,0,241.667,1282.04,239.282)"><path d="M0.041,-0.065c0.019,0 0.032,-0.004 0.04,-0.011c0.008,-0.007 0.013,-0.018 0.016,-0.032c0.002,-0.013 0.003,-0.029 0.003,-0.046l0,-0.168c0,-0.012 0,-0.025 0.001,-0.04c0.001,-0.016 0.002,-0.03 0.003,-0.045c-0.011,0.001 -0.023,0.001 -0.038,0.001c-0.014,0.001 -0.025,0.001 -0.032,0.002l0,-0.076l0.04,0c0.026,0 0.05,-0.003 0.071,-0.01c0.022,-0.007 0.036,-0.013 0.043,-0.02l0.049,0c0.001,0.007 0.002,0.019 0.003,0.037c0.001,0.019 0.001,0.035 0.001,0.049c0.018,-0.022 0.035,-0.04 0.051,-0.053c0.016,-0.013 0.032,-0.023 0.047,-0.03c0.016,-0.006 0.032,-0.009 0.048,-0.009c0.023,0 0.044,0.007 0.061,0.02c0.017,0.012 0.026,0.034 0.026,0.063c0,0.01 -0.002,0.02 -0.007,0.031c-0.005,0.012 -0.012,0.021 -0.022,0.028c-0.01,0.007 -0.024,0.011 -0.041,0.011c-0.013,0 -0.027,-0.004 -0.041,-0.012c-0.014,-0.008 -0.022,-0.023 -0.024,-0.046c-0.013,0 -0.027,0.006 -0.04,0.016c-0.013,0.011 -0.025,0.024 -0.036,0.039c-0.01,0.015 -0.017,0.029 -0.021,0.042l-0,0.163c-0,0.009 -0,0.023 -0.001,0.04c-0.001,0.017 -0.002,0.033 -0.003,0.048c0.011,-0.001 0.022,-0.002 0.036,-0.003c0.012,0 0.022,0 0.029,0l-0,0.076l-0.262,-0l-0,-0.065Z" style="fill:#fff;fill-rule:nonzero;"/></g><g transform="matrix(241.667,0,0,241.667,1396.11,239.282)"><path d="M0.278,0.016c-0.049,0 -0.092,-0.011 -0.129,-0.033c-0.037,-0.021 -0.066,-0.052 -0.087,-0.092c-0.021,-0.039 -0.031,-0.086 -0.031,-0.14c-0,-0.047 0.01,-0.09 0.031,-0.131c0.021,-0.041 0.05,-0.074 0.087,-0.099c0.038,-0.024 0.082,-0.037 0.132,-0.037c0.028,0 0.055,0.004 0.082,0.011c0.027,0.008 0.051,0.021 0.072,0.04c0.022,0.019 0.039,0.044 0.052,0.076c0.014,0.032 0.02,0.072 0.019,0.12l-0.328,0.006c0,0.036 0.005,0.068 0.014,0.097c0.009,0.029 0.023,0.051 0.044,0.068c0.021,0.017 0.048,0.025 0.083,0.025c0.013,0 0.028,-0.002 0.045,-0.007c0.018,-0.005 0.035,-0.012 0.052,-0.023c0.018,-0.011 0.035,-0.026 0.05,-0.045l0.045,0.042c-0.024,0.034 -0.05,0.06 -0.077,0.078c-0.027,0.017 -0.054,0.029 -0.082,0.035c-0.027,0.006 -0.051,0.009 -0.074,0.009Zm-0.094,-0.349l0.184,0c-0.001,-0.028 -0.005,-0.05 -0.012,-0.067c-0.007,-0.016 -0.016,-0.028 -0.028,-0.035c-0.012,-0.007 -0.026,-0.011 -0.042,-0.011c-0.029,0 -0.052,0.011 -0.069,0.032c-0.017,0.021 -0.028,0.048 -0.033,0.081Z" style="fill:#fff;fill-rule:nonzero;"/></g><g transform="matrix(241.667,0,0,241.667,1526.13,239.282)"><path d="M0.319,-0c-0.001,-0.009 -0.002,-0.017 -0.003,-0.024c0,-0.006 -0,-0.013 -0.001,-0.022c-0.023,0.023 -0.047,0.039 -0.072,0.048c-0.025,0.009 -0.051,0.014 -0.077,0.014c-0.043,0 -0.076,-0.013 -0.1,-0.038c-0.024,-0.025 -0.036,-0.057 -0.036,-0.095c0,-0.032 0.008,-0.059 0.025,-0.082c0.016,-0.023 0.038,-0.041 0.065,-0.055c0.027,-0.015 0.057,-0.026 0.09,-0.034c0.033,-0.007 0.066,-0.012 0.099,-0.013l0,-0.052c0,-0.017 -0.002,-0.033 -0.006,-0.047c-0.005,-0.014 -0.012,-0.025 -0.022,-0.033c-0.011,-0.008 -0.025,-0.012 -0.044,-0.011c-0.013,0.001 -0.025,0.003 -0.037,0.008c-0.012,0.005 -0.022,0.011 -0.031,0.02c0.005,0.006 0.009,0.013 0.01,0.02c0.001,0.007 0.002,0.013 0.002,0.018c0,0.013 -0.005,0.027 -0.016,0.041c-0.011,0.015 -0.028,0.022 -0.051,0.021c-0.02,-0.001 -0.035,-0.008 -0.046,-0.021c-0.011,-0.013 -0.016,-0.029 -0.016,-0.047c0,-0.027 0.01,-0.05 0.029,-0.07c0.019,-0.019 0.044,-0.034 0.076,-0.045c0.032,-0.012 0.067,-0.017 0.106,-0.017c0.059,0 0.104,0.015 0.137,0.045c0.032,0.031 0.048,0.079 0.048,0.146l0,0.058c0,0.016 -0,0.032 -0,0.048c-0.001,0.016 -0.001,0.035 -0.001,0.058c0,0.009 -0,0.023 -0.001,0.04c-0.001,0.017 -0.002,0.033 -0.003,0.048c0.011,-0.001 0.023,-0.002 0.036,-0.002c0.013,-0.001 0.022,-0.001 0.029,-0.001l0,0.076l-0.189,0Zm-0.011,-0.23c-0.019,0.002 -0.036,0.005 -0.053,0.01c-0.017,0.005 -0.031,0.011 -0.043,0.019c-0.013,0.008 -0.022,0.018 -0.029,0.029c-0.007,0.011 -0.011,0.024 -0.011,0.038c0.001,0.019 0.007,0.032 0.018,0.04c0.011,0.008 0.024,0.012 0.039,0.012c0.015,0 0.03,-0.003 0.043,-0.01c0.013,-0.007 0.025,-0.015 0.036,-0.026l0,-0.112Z" style="fill:#fff;fill-rule:nonzero;"/></g><g transform="matrix(241.667,0,0,241.667,1652.76,239.282)"><path d="M0.041,-0l0,-0.065c0.019,0 0.032,-0.004 0.04,-0.011c0.008,-0.007 0.013,-0.018 0.016,-0.032c0.002,-0.013 0.003,-0.029 0.003,-0.046l0,-0.168c0,-0.012 0,-0.025 0.001,-0.04c0.001,-0.016 0.002,-0.03 0.003,-0.045c-0.011,0.001 -0.023,0.001 -0.038,0.001c-0.014,0.001 -0.025,0.001 -0.032,0.002l0,-0.076c0.031,0 0.057,-0.002 0.078,-0.005c0.021,-0.003 0.038,-0.007 0.051,-0.012c0.012,-0.005 0.02,-0.009 0.025,-0.013l0.049,0c0.001,0.007 0.002,0.015 0.003,0.025c-0,0.01 0,0.018 0.001,0.025c0.023,-0.017 0.047,-0.031 0.074,-0.041c0.026,-0.01 0.051,-0.015 0.074,-0.015c0.031,0 0.056,0.005 0.076,0.017c0.02,0.011 0.036,0.027 0.048,0.049c0.024,-0.02 0.05,-0.036 0.08,-0.048c0.029,-0.012 0.056,-0.018 0.083,-0.018c0.054,0 0.095,0.015 0.123,0.046c0.027,0.031 0.041,0.085 0.041,0.162l0,0.147c0,0.009 -0,0.023 -0.001,0.04c-0.001,0.017 -0.002,0.033 -0.003,0.048c0.011,-0.001 0.022,-0.002 0.036,-0.002c0.013,-0.001 0.022,-0.001 0.029,-0.001l0,0.076l-0.253,0l0,-0.065c0.015,0 0.027,-0.004 0.033,-0.011c0.007,-0.007 0.012,-0.018 0.014,-0.031c0.002,-0.014 0.003,-0.03 0.003,-0.047l0,-0.153c-0.001,-0.043 -0.008,-0.073 -0.022,-0.09c-0.013,-0.017 -0.031,-0.025 -0.054,-0.026c-0.017,-0.001 -0.034,0.002 -0.048,0.009c-0.015,0.007 -0.029,0.015 -0.041,0.024c0.003,0.013 0.006,0.028 0.007,0.044c0.001,0.016 0.002,0.033 0.002,0.051l0,0.134c0,0.009 -0,0.023 -0.001,0.04c-0.001,0.017 -0.002,0.033 -0.003,0.048c0.011,-0.001 0.022,-0.002 0.035,-0.002c0.013,-0.001 0.023,-0.001 0.03,-0.001l0,0.076l-0.258,0l0,-0.065c0.017,0 0.03,-0.004 0.038,-0.011c0.007,-0.007 0.012,-0.018 0.014,-0.031c0.002,-0.014 0.003,-0.03 0.003,-0.047l-0.001,-0.156c0,-0.043 -0.006,-0.073 -0.019,-0.089c-0.013,-0.016 -0.03,-0.024 -0.053,-0.025c-0.017,0 -0.032,0.004 -0.046,0.011c-0.015,0.007 -0.028,0.016 -0.039,0.026l0,0.226c0,0.009 -0,0.023 -0.001,0.04c-0.001,0.017 -0.002,0.033 -0.003,0.048c0.011,-0.001 0.022,-0.002 0.033,-0.003c0.011,0 0.02,0 0.027,0l0,0.076l-0.257,-0Z" style="fill:#fff;fill-rule:nonzero;"/></g><g transform="matrix(241.667,0,0,241.667,1875.09,239.282)"></g></svg>